# xmcd CD database file
#
# Track frame offsets:
#	150
#	3767
#	21680
#	37664
#	48698
#	61980
#	76108
#	91191
#	114145
#	128028
#	137937
#	147616
#	166081
#	183340
#
# Disc length: 2602 seconds
#
# Revision: 0
# Processed by: cddbd v1.5.1PL2 Copyright (c) Steve Scherf et al.
# Submitted via: CDex 1.50
#
DISCID=af0a280e
DTITLE=Keith Jamieson and Joe Daly - Songs From A Bush Ballad Pen
DYEAR=2005
DGENRE=Country
TTITLE0=Monologue
TTITLE1=Brother Ron And I
TTITLE2=Twenty Million Bulldog Ants
TTITLE3=A Lone Horseman
TTITLE4=Your Come In Handy
TTITLE5=I Proudly Stand
TTITLE6=Bugger Bugger Land
TTITLE7=Loudmouth
TTITLE8=A Bushman And Balladeer
TTITLE9=Poor Old Buggers
TTITLE10=I Sobered Up Quick
TTITLE11=Unwritten Law
TTITLE12=The Cooper Basin
TTITLE13=This Little Badge
EXTD=YEAR: 2005
EXTT0=
EXTT1=
EXTT2=
EXTT3=
EXTT4=
EXTT5=
EXTT6=
EXTT7=
EXTT8=
EXTT9=
EXTT10=
EXTT11=
EXTT12=
EXTT13=
PLAYORDER=
